<svg id="Calque_1" data-name="Calque 1" xmlns="http://www.w3.org/2000/svg" viewBox="0 0 123.49 44.65"><title>KDE</title><g id="Calque_1-2" data-name="Calque 1-2"><path d="M0,0H9.17V18.39L26.41,0H38.46L20.15,18.35,39.4,44.62h-12L13.66,25.14,9.17,29.7V44.62H0Z" transform="translate(0 0)" style="fill:#fff"/><path d="M70.77,1a14.74,14.74,0,0,1,7.6,5.66,19.85,19.85,0,0,1,3.19,7.2,35.32,35.32,0,0,1,.84,7.39q0,8.91-3.57,15.08-4.85,8.33-15,8.32H44.62V0H63.86A23.11,23.11,0,0,1,70.77,1ZM53.67,7.75V36.87h8.62c4.4,0,7.48-2.17,9.21-6.51a22.82,22.82,0,0,0,1.43-8.5q0-6.81-2.14-10.46t-8.5-3.65Z" transform="translate(0 0)" style="fill:#fff"/><path d="M122.4,7.9H98.78v9.48h21.68v7.75H98.78V36.6h24.71v8H89.67V0H122.4Z" transform="translate(0 0)" style="fill:#fff"/></g></svg>